<mxfile host="app.diagrams.net" agent="Mozilla/5.0 (Windows NT 10.0; Win64; x64) AppleWebKit/537.36 (KHTML, like Gecko) Chrome/141.0.0.0 Safari/537.36" version="28.2.8">
  <diagram name="Board Architecture" id="board-arch">
    <mxGraphModel dx="1426" dy="777" grid="1" gridSize="10" guides="1" tooltips="1" connect="1" arrows="1" fold="1" page="1" pageScale="1" pageWidth="1169" pageHeight="827" background="light-dark(#FFFFFF,#FFFFFF)" math="0" shadow="0">
      <root>
        <mxCell id="0" />
        <mxCell id="1" parent="0" />
        <mxCell id="title" value="Blue-Crab LMS 게시판 시스템 아키텍처" style="text;html=1;strokeColor=none;fillColor=none;align=center;verticalAlign=middle;whiteSpace=wrap;rounded=0;fontSize=24;fontStyle=1;fontColor=light-dark(#000000,#000000);" parent="1" vertex="1">
          <mxGeometry x="300" y="30" width="569" height="40" as="geometry" />
        </mxCell>
        <mxCell id="client-layer" value="클라이언트 레이어" style="rounded=1;whiteSpace=wrap;html=1;fillColor=#e1f5fe;strokeColor=#01579b;fontSize=16;fontStyle=1;fontColor=#1a1a1a;" parent="1" vertex="1">
          <mxGeometry x="50" y="100" width="1070" height="60" as="geometry" />
        </mxCell>
        <mxCell id="react-app" value="React PWA App&#xa;게시글 CRUD + 첨부파일" style="rounded=1;whiteSpace=wrap;html=1;fillColor=#f3e5f5;strokeColor=#7b1fa2;fontSize=12;fontColor=#1a1a1a;" parent="1" vertex="1">
          <mxGeometry x="80" y="180" width="160" height="60" as="geometry" />
        </mxCell>
        <mxCell id="test-console" value="브라우저 콘솔&#xa;테스트 스크립트" style="rounded=1;whiteSpace=wrap;html=1;fillColor=#f3e5f5;strokeColor=#7b1fa2;fontSize=12;fontColor=#1a1a1a;" parent="1" vertex="1">
          <mxGeometry x="280" y="180" width="160" height="60" as="geometry" />
        </mxCell>
        <mxCell id="postman" value="Postman / cURL&#xa;API 테스트" style="rounded=1;whiteSpace=wrap;html=1;fillColor=#f3e5f5;strokeColor=#7b1fa2;fontSize=12;fontColor=#1a1a1a;" parent="1" vertex="1">
          <mxGeometry x="480" y="180" width="160" height="60" as="geometry" />
        </mxCell>
        <mxCell id="api-gateway" value="Spring Boot REST API Gateway" style="rounded=1;whiteSpace=wrap;html=1;fillColor=#fff3e0;strokeColor=#f57c00;fontSize=16;fontStyle=1;fontColor=#1a1a1a;" parent="1" vertex="1">
          <mxGeometry x="50" y="280" width="1070" height="50" as="geometry" />
        </mxCell>
        <mxCell id="jwt-auth" value="JWT Bearer Token 인증" style="rounded=1;whiteSpace=wrap;html=1;fillColor=#ffebee;strokeColor=#c62828;fontSize=14;fontStyle=1;fontColor=#1a1a1a;" parent="1" vertex="1">
          <mxGeometry x="80" y="340" width="200" height="40" as="geometry" />
        </mxCell>
        <mxCell id="controller-layer" value="Controller Layer (Board 패키지)" style="rounded=1;whiteSpace=wrap;html=1;fillColor=#e8f5e8;strokeColor=#2e7d32;fontSize=16;fontStyle=1;fontColor=#1a1a1a;" parent="1" vertex="1">
          <mxGeometry x="50" y="392" width="1070" height="50" as="geometry" />
        </mxCell>
        <mxCell id="board-controller" value="BoardController&#xa;게시글 CRUD" style="rounded=1;whiteSpace=wrap;html=1;fillColor=#c8e6c9;strokeColor=#4caf50;fontSize=11;fontColor=#1a1a1a;" parent="1" vertex="1">
          <mxGeometry x="190" y="452" width="120" height="60" as="geometry" />
        </mxCell>
        <mxCell id="board-create-controller" value="BoardCreateController&#xa;게시글 생성" style="rounded=1;whiteSpace=wrap;html=1;fillColor=#c8e6c9;strokeColor=#4caf50;fontSize=11;fontColor=#1a1a1a;" parent="1" vertex="1">
          <mxGeometry x="330" y="452" width="120" height="60" as="geometry" />
        </mxCell>
        <mxCell id="board-update-controller" value="BoardUpdateController&#xa;게시글 수정" style="rounded=1;whiteSpace=wrap;html=1;fillColor=#c8e6c9;strokeColor=#4caf50;fontSize=11;fontColor=#1a1a1a;" parent="1" vertex="1">
          <mxGeometry x="190" y="522" width="120" height="60" as="geometry" />
        </mxCell>
        <mxCell id="board-stats-controller" value="BoardStatisticsController&#xa;통계 조회" style="rounded=1;whiteSpace=wrap;html=1;fillColor=#c8e6c9;strokeColor=#4caf50;fontSize=11;fontColor=#1a1a1a;" parent="1" vertex="1">
          <mxGeometry x="320" y="522" width="140" height="60" as="geometry" />
        </mxCell>
        <mxCell id="attachment-controller" value="BoardAttachmentController&#xa;첨부파일 업로드" style="rounded=1;whiteSpace=wrap;html=1;fillColor=#ffcdd2;strokeColor=#e57373;fontSize=11;fontColor=#1a1a1a;" parent="1" vertex="1">
          <mxGeometry x="640" y="452" width="140" height="60" as="geometry" />
        </mxCell>
        <mxCell id="attachment-download-controller" value="BoardAttachmentDownloadController&#xa;파일 다운로드" style="rounded=1;whiteSpace=wrap;html=1;fillColor=#ffcdd2;strokeColor=#e57373;fontSize=11;fontColor=#1a1a1a;" parent="1" vertex="1">
          <mxGeometry x="790" y="452" width="210" height="60" as="geometry" />
        </mxCell>
        <mxCell id="attachment-info-controller" value="BoardAttachmentInfoController&#xa;파일 정보 조회" style="rounded=1;whiteSpace=wrap;html=1;fillColor=#ffcdd2;strokeColor=#e57373;fontSize=11;fontColor=#1a1a1a;" parent="1" vertex="1">
          <mxGeometry x="718" y="521" width="162" height="60" as="geometry" />
        </mxCell>
        <mxCell id="service-layer" value="Service Layer (Board 패키지)" style="rounded=1;whiteSpace=wrap;html=1;fillColor=#fff8e1;strokeColor=#ff8f00;fontSize=16;fontStyle=1;fontColor=#1a1a1a;" parent="1" vertex="1">
          <mxGeometry x="50" y="591" width="1070" height="50" as="geometry" />
        </mxCell>
        <mxCell id="board-service" value="BoardService&#xa;비즈니스 로직" style="rounded=1;whiteSpace=wrap;html=1;fillColor=#fff3c4;strokeColor=#ffa000;fontSize=11;fontColor=#1a1a1a;" parent="1" vertex="1">
          <mxGeometry x="80" y="651" width="120" height="60" as="geometry" />
        </mxCell>
        <mxCell id="board-management-service" value="BoardManagementService&#xa;게시판 관리" style="rounded=1;whiteSpace=wrap;html=1;fillColor=#fff3c4;strokeColor=#ffa000;fontSize=11;fontColor=#1a1a1a;" parent="1" vertex="1">
          <mxGeometry x="220" y="651" width="140" height="60" as="geometry" />
        </mxCell>
        <mxCell id="board-stats-service" value="BoardStatsService&#xa;통계 서비스" style="rounded=1;whiteSpace=wrap;html=1;fillColor=#fff3c4;strokeColor=#ffa000;fontSize=11;fontColor=#1a1a1a;" parent="1" vertex="1">
          <mxGeometry x="380" y="651" width="120" height="60" as="geometry" />
        </mxCell>
        <mxCell id="attachment-service" value="BoardAttachmentService&#xa;첨부파일 서비스" style="rounded=1;whiteSpace=wrap;html=1;fillColor=#fce4ec;strokeColor=#e91e63;fontSize=11;fontColor=#1a1a1a;" parent="1" vertex="1">
          <mxGeometry x="600" y="651" width="140" height="60" as="geometry" />
        </mxCell>
        <mxCell id="attachment-download-service" value="BoardAttachmentDownloadService&#xa;다운로드 서비스" style="rounded=1;whiteSpace=wrap;html=1;fillColor=#fce4ec;strokeColor=#e91e63;fontSize=11;fontColor=#1a1a1a;" parent="1" vertex="1">
          <mxGeometry x="750" y="651" width="200" height="60" as="geometry" />
        </mxCell>
        <mxCell id="attachment-info-service" value="BoardAttachmentInfoService&#xa;파일 정보 서비스" style="rounded=1;whiteSpace=wrap;html=1;fillColor=#fce4ec;strokeColor=#e91e63;fontSize=11;fontColor=#1a1a1a;" parent="1" vertex="1">
          <mxGeometry x="960" y="651" width="150" height="60" as="geometry" />
        </mxCell>
        <mxCell id="repository-layer" value="Repository Layer (Board 패키지)" style="rounded=1;whiteSpace=wrap;html=1;fillColor=#f3e5f5;strokeColor=#7b1fa2;fontSize=16;fontStyle=1;fontColor=#1a1a1a;" parent="1" vertex="1">
          <mxGeometry x="50" y="721" width="1070" height="50" as="geometry" />
        </mxCell>
        <mxCell id="board-repository" value="BoardRepository&#xa;JPA Repository" style="rounded=1;whiteSpace=wrap;html=1;fillColor=#e1bee7;strokeColor=#9c27b0;fontSize=11;fontColor=#1a1a1a;" parent="1" vertex="1">
          <mxGeometry x="260" y="781" width="140" height="60" as="geometry" />
        </mxCell>
        <mxCell id="attachment-repository" value="BoardAttachmentRepository&#xa;첨부파일 Repository" style="rounded=1;whiteSpace=wrap;html=1;fillColor=#e1bee7;strokeColor=#9c27b0;fontSize=11;fontColor=#1a1a1a;" parent="1" vertex="1">
          <mxGeometry x="714" y="781" width="170" height="60" as="geometry" />
        </mxCell>
        <mxCell id="entity-layer" value="Entity Layer (Board 패키지)" style="rounded=1;whiteSpace=wrap;html=1;fillColor=#e3f2fd;strokeColor=#1976d2;fontSize=16;fontStyle=1;fontColor=#1a1a1a;" parent="1" vertex="1">
          <mxGeometry x="50" y="851" width="1070" height="50" as="geometry" />
        </mxCell>
        <mxCell id="board-entity" value="BoardTbl&#xa;게시글 엔티티" style="rounded=1;whiteSpace=wrap;html=1;fillColor=#bbdefb;strokeColor=#2196f3;fontSize=11;fontColor=#1a1a1a;" parent="1" vertex="1">
          <mxGeometry x="260" y="911" width="140" height="60" as="geometry" />
        </mxCell>
        <mxCell id="attachment-entity" value="BoardAttachmentTbl&#xa;첨부파일 엔티티" style="rounded=1;whiteSpace=wrap;html=1;fillColor=#bbdefb;strokeColor=#2196f3;fontSize=11;fontColor=#1a1a1a;" parent="1" vertex="1">
          <mxGeometry x="714" y="911" width="170" height="60" as="geometry" />
        </mxCell>
        <mxCell id="database" value="MariaDB Database" style="rounded=1;whiteSpace=wrap;html=1;fillColor=#f1f8e9;strokeColor=#689f38;fontSize=16;fontStyle=1;fontColor=#1a1a1a;" parent="1" vertex="1">
          <mxGeometry x="50" y="981" width="1070" height="50" as="geometry" />
        </mxCell>
        <mxCell id="arrow1" style="edgeStyle=orthogonalEdgeStyle;rounded=0;orthogonalLoop=1;jettySize=auto;html=1;strokeColor=light-dark(#000000,#FF8000);strokeWidth=2;" parent="1" source="react-app" target="api-gateway" edge="1">
          <mxGeometry relative="1" as="geometry" />
        </mxCell>
        <mxCell id="arrow2" style="edgeStyle=orthogonalEdgeStyle;rounded=0;orthogonalLoop=1;jettySize=auto;html=1;strokeColor=light-dark(#000000,#FF8000);strokeWidth=2;" parent="1" source="test-console" target="api-gateway" edge="1">
          <mxGeometry relative="1" as="geometry" />
        </mxCell>
        <mxCell id="arrow3" style="edgeStyle=orthogonalEdgeStyle;rounded=0;orthogonalLoop=1;jettySize=auto;html=1;strokeColor=light-dark(#000000,#FF8000);strokeWidth=2;" parent="1" source="postman" target="api-gateway" edge="1">
          <mxGeometry relative="1" as="geometry" />
        </mxCell>
        <mxCell id="arrow4" style="edgeStyle=orthogonalEdgeStyle;rounded=0;orthogonalLoop=1;jettySize=auto;html=1;strokeColor=light-dark(#000000,#FF8000);strokeWidth=2;" parent="1" source="api-gateway" target="controller-layer" edge="1">
          <mxGeometry relative="1" as="geometry" />
        </mxCell>
        <mxCell id="arrow5" style="edgeStyle=orthogonalEdgeStyle;rounded=0;orthogonalLoop=1;jettySize=auto;html=1;strokeColor=light-dark(#000000,#FF8000);strokeWidth=2;" parent="1" source="controller-layer" target="service-layer" edge="1">
          <mxGeometry relative="1" as="geometry" />
        </mxCell>
        <mxCell id="arrow6" style="edgeStyle=orthogonalEdgeStyle;rounded=0;orthogonalLoop=1;jettySize=auto;html=1;strokeColor=light-dark(#000000,#FF8000);strokeWidth=2;" parent="1" source="service-layer" target="repository-layer" edge="1">
          <mxGeometry relative="1" as="geometry" />
        </mxCell>
        <mxCell id="arrow7" style="edgeStyle=orthogonalEdgeStyle;rounded=0;orthogonalLoop=1;jettySize=auto;html=1;strokeColor=light-dark(#000000,#FF8000);strokeWidth=2;" parent="1" source="repository-layer" target="entity-layer" edge="1">
          <mxGeometry relative="1" as="geometry" />
        </mxCell>
        <mxCell id="arrow8" style="edgeStyle=orthogonalEdgeStyle;rounded=0;orthogonalLoop=1;jettySize=auto;html=1;strokeColor=light-dark(#000000,#FF8000);strokeWidth=2;" parent="1" source="entity-layer" target="database" edge="1">
          <mxGeometry relative="1" as="geometry" />
        </mxCell>
        <mxCell id="legend-title" value="범례" style="text;html=1;strokeColor=none;fillColor=none;align=left;verticalAlign=middle;whiteSpace=wrap;rounded=0;fontSize=14;fontStyle=1;fontColor=light-dark(#000000,#000000);" parent="1" vertex="1">
          <mxGeometry x="880" y="180" width="60" height="30" as="geometry" />
        </mxCell>
        <mxCell id="legend-board" value="게시글 관련" style="rounded=1;whiteSpace=wrap;html=1;fillColor=#c8e6c9;strokeColor=#4caf50;fontSize=10;fontColor=#1a1a1a;" parent="1" vertex="1">
          <mxGeometry x="880" y="210" width="80" height="30" as="geometry" />
        </mxCell>
        <mxCell id="legend-attachment" value="첨부파일 관련" style="rounded=1;whiteSpace=wrap;html=1;fillColor=#ffcdd2;strokeColor=#e57373;fontSize=10;fontColor=#1a1a1a;" parent="1" vertex="1">
          <mxGeometry x="980" y="210" width="80" height="30" as="geometry" />
        </mxCell>
        <mxCell id="board-types" value="게시판 타입&#xa;0: 학사공지&#xa;1: 행정공지&#xa;2: 기타공지&#xa;3: 강의공지" style="rounded=1;whiteSpace=wrap;html=1;fillColor=#f0f4c3;strokeColor=#827717;fontSize=10;align=left;fontColor=#1a1a1a;" parent="1" vertex="1">
          <mxGeometry x="720" y="180" width="120" height="80" as="geometry" />
        </mxCell>
      </root>
    </mxGraphModel>
  </diagram>
</mxfile>
